<?xml version="1.0" encoding="utf-8"?>
<!-- Generator: Adobe Illustrator 15.0.0, SVG Export Plug-In . SVG Version: 6.00 Build 0)  -->
<!DOCTYPE svg PUBLIC "-//W3C//DTD SVG 1.1//EN" "http://www.w3.org/Graphics/SVG/1.1/DTD/svg11.dtd">
<svg version="1.1" id="Layer_1" xmlns="http://www.w3.org/2000/svg" xmlns:xlink="http://www.w3.org/1999/xlink" x="0px" y="0px"
	 width="650px" height="690px" viewBox="0 0 650 690" enable-background="new 0 0 650 690" xml:space="preserve">
<g>
	<path fill-rule="evenodd" clip-rule="evenodd" fill="#ED1B68" d="M319.249,20.5c6.855,0,13.712,0,20.568,0
		c51.752,3.094,90.728,18.968,121.825,42.718c35.067-11.408,66.588-34.582,115.496-26.896
		c11.461,51.821-11.551,94.396-28.478,128.154c-123.768,38.895-294.43,63.312-454.078,41.136
		c29.935-60.68-41.18-104.71-17.404-169.291c49.978-8.228,80.308,16.667,117.079,26.896C224.748,37.805,267.305,24.459,319.249,20.5
		z M113.57,67.965c-6.221,24.786,4.37,46.177,9.492,64.869c24.522-8.704,30.492-35.959,50.629-49.047
		C155.93,76.232,138.341,68.507,113.57,67.965z M482.21,82.204c14.283,19.47,30.109,37.395,47.464,53.793
		c5.811-20.559,16.226-36.514,14.24-64.868C521.476,62.696,502.563,78.717,482.21,82.204z"/>
	<path fill-rule="evenodd" clip-rule="evenodd" fill="#ED1B68" d="M89.837,224.598c30.868,1.107,25.331,29.698,33.225,49.047
		c32.593,79.883,174.437,53.365,169.291-42.718c90.925-7.127,182.548-18.891,248.396-45.883c1.571-0.644,2.91-4,6.329-3.164
		c9.949,2.432,13.027,18.745,17.403,31.643c50.995,150.291-105.264,221.501-235.739,221.501
		c-66.328,0-123.115-17.816-159.798-37.971C117.152,368.594,68.201,312.388,89.837,224.598z M415.759,291.047
		c26.453,29.654,105.687,21.579,104.423-26.896C491.649,236.139,418.614,247.383,415.759,291.047z M303.427,332.184
		c5.628,4.393,15.845,4.196,17.403,12.657c-4.58,16.514-20.746,21.444-31.642,31.643c26.413,2.153,31.582-16.937,47.464-25.315
		c5.721,16.152,20.998,28.547,42.718,23.732c-13.059-9.09-31.729-12.57-31.643-34.807
		C400.08,325.666,305.718,295.752,303.427,332.184z"/>
	<path fill-rule="evenodd" clip-rule="evenodd" fill="#ED1B68" d="M505.943,670.764c-1.055,0-2.109,0-3.165,0
		c-5.862-3.628-17.447-1.537-22.15-6.328c0-2.109,0-4.219,0-6.329c-1.517-6.818,10.002-5.356,12.658-3.163
		c2.651-5.259,2.862-12.959,4.746-18.987c-29.188-7.49-57.757-11.206-87.018-17.402c-27.84-5.898-56.889-20.425-83.854-20.569
		c-12.517-0.065-28.563,6.171-42.718,9.492c-41.915,9.845-84.282,19.583-128.154,28.479c-0.053,6.91,1.374,12.34,3.164,17.404
		c0.757,4.156,10.522-3.951,12.658,1.583c-0.445,2.555,1.496,2.723,1.582,4.745c0.494,11.569-16.321,5.829-22.149,11.075
		c-1.582,0-3.165,0-4.746,0c-5.102-11.246-5.117-27.581-9.494-39.553c-27.308,3.281-50.657,10.519-77.525,14.238
		c-3.038,9.093-8.888,15.374-23.733,12.657c-4.063-11.683-9.35-29.051-6.328-42.718c10.993-5.042,21.83,0.516,28.479,4.747
		c22.915-7.147,51.315-8.807,74.362-15.822c-2.609-7.938-3.218-17.878-6.329-25.313c-4.747-1.856-14.514,2.211-14.239-7.912
		c3.247-9.936,17.354-9.016,28.479-11.075c4.371,9.341,3.843,23.581,7.911,33.226c34.575-5.507,67.623-12.539,98.093-22.15
		c-76.481-34.854-167.5-63.414-158.215-178.782c37.83,61.302,91.944,103.376,164.543,132.901
		c17.744,7.215,56.994,25.444,74.361,25.313c9.597-0.071,23.985-8.359,36.391-12.658c90.089-31.218,160.733-74.925,200.932-143.974
		c9.745,115.764-83.979,141.727-158.215,178.781c32.724,7.359,65.861,14.304,98.093,22.151c4.944-9.823,3.363-26.172,9.494-34.809
		c10.86,2.824,26.152,1.472,26.896,11.075c0.868,11.202-8.073,3.298-14.238,9.493c-1.938,8.082-4.968,15.074-4.747,25.315
		c25.396,4.137,50.775,8.291,74.361,14.239c4.313-6.522,20.918-9.354,28.479-3.164c-2.566,14.135,1.325,37.02-11.076,41.135
		c-11.382,3.778-14.909-5.016-22.15-12.657c-25.809-4.251-49.253-10.866-75.943-14.238
		C512.196,644.319,511.306,659.779,505.943,670.764z"/>
</g>
</svg>
